<svg width="189" height="60" viewBox="0 0 189 60" fill="none" xmlns="http://www.w3.org/2000/svg">
<g clip-path="url(#ukwrfwowsz)">
<path d="M145.61 49.3002C144.378 47.8744 143.44 46.2194 142.85 44.4302L142.69 43.9802L142.53 43.4302L142.43 43.0902L142.27 42.4602L142.19 42.0902C142.11 41.7402 142.04 41.3702 141.98 41.0002C141.968 40.8658 141.948 40.7323 141.92 40.6002L141.84 39.9502C141.856 39.8073 141.856 39.6631 141.84 39.5202L141.79 38.9702L169.79 32.2202C169.626 30.7705 169.195 29.3637 168.52 28.0702C167.482 25.8087 165.793 23.9078 163.67 22.6102C161.318 21.1228 158.676 20.1545 155.92 19.7702L155.45 19.7002C153.788 19.5166 152.112 19.5166 150.45 19.7002C146.041 20.1771 141.902 22.0558 138.64 25.0602C135.419 27.9906 133.266 31.9102 132.52 36.2002V36.3702C132.47 36.6502 132.43 36.9202 132.4 37.2302C132.37 37.5402 132.4 37.5802 132.34 37.7802C132.353 37.9333 132.353 38.0872 132.34 38.2402C132.36 38.5065 132.36 38.7739 132.34 39.0402V40.3302C132.405 42.6459 132.893 44.9301 133.78 47.0702C135.361 50.7382 137.974 53.8676 141.301 56.0779C144.628 58.2882 148.526 59.4841 152.52 59.5202C155.898 59.5885 159.243 58.8407 162.27 57.3402C165.264 55.8615 167.847 53.6666 169.79 50.9502L169.31 49.7402C167.33 53.5202 153.67 58.2202 145.61 49.3002ZM158.35 32.6902L141.7 36.6902C141.7 36.1902 141.7 35.6902 141.77 35.2202V35.0702C141.762 34.9103 141.762 34.7501 141.77 34.5902L141.85 33.9402C142.001 32.8998 142.235 31.8732 142.55 30.8702C143.115 29.0092 143.98 27.2528 145.11 25.6702C146.141 24.2118 147.466 22.9854 149 22.0702C150.468 21.1926 152.15 20.7359 153.86 20.7502C156.247 20.7502 157.993 21.4169 159.1 22.7502C159.503 23.2148 159.84 23.7331 160.1 24.2902C161.21 27.1202 161.13 31.8302 158.35 32.6902Z" fill="white"/>
<path d="M95.6401 49.7106C93.6401 53.5306 80.0001 58.2206 71.9401 49.3106C70.6184 47.7703 69.6309 45.9724 69.0401 44.0306C68.3448 41.8287 68.0071 39.5295 68.0401 37.2206C68.0252 35.0649 68.3422 32.9198 68.9801 30.8606C69.545 28.9996 70.4097 27.2432 71.5401 25.6606C72.553 24.214 73.8535 22.9919 75.3601 22.0706C76.8285 21.1935 78.5097 20.7368 80.2201 20.7506C82.6068 20.7506 84.3535 21.4173 85.4601 22.7506C86.6006 24.1923 87.1892 25.9937 87.1201 27.8306C87.1445 28.7846 87.0024 29.7355 86.7001 30.6406L95.2001 28.6406C92.1101 20.6406 81.8701 19.5306 79.9801 19.5306C63.7601 19.2706 54.8601 34.5306 60.1001 46.9606C61.6833 50.6308 64.2976 53.7627 67.6258 55.9762C70.9541 58.1897 74.8532 59.3897 78.8501 59.4306C82.2282 59.4989 85.5728 58.7511 88.6001 57.2506C91.5947 55.7723 94.1778 53.5773 96.1201 50.8606L95.6401 49.7106Z" fill="white"/>
<path d="M132.52 49.7104C130.52 53.5304 116.88 58.2204 108.82 49.3104C107.512 47.7804 106.535 45.9963 105.95 44.0704C105.255 41.8684 104.917 39.5692 104.95 37.2604C104.935 35.1047 105.252 32.9596 105.89 30.9004C106.452 29.0399 107.313 27.2835 108.44 25.7004C109.451 24.241 110.751 23.0053 112.26 22.0704C113.728 21.1927 115.41 20.7361 117.12 20.7504C119.5 20.7504 121.247 21.4171 122.36 22.7504C123.511 24.1879 124.111 25.9897 124.05 27.8304C124.076 28.7852 123.93 29.7369 123.62 30.6404L132.07 28.6404C129 20.6404 118.76 19.5404 116.89 19.5404C100.67 19.2804 91.77 34.5404 97.01 46.9704C98.5829 50.6499 101.192 53.7926 104.519 56.0156C107.847 58.2386 111.749 59.4459 115.75 59.4904C119.135 59.5619 122.487 58.814 125.52 57.3104C128.514 55.8317 131.097 53.6368 133.04 50.9204L132.52 49.7104Z" fill="white"/>
<path d="M182.05 51.4902V0.490234L170.05 3.41023H169.97V4.54023C170.39 4.54023 174.02 5.54023 174.02 8.04023V51.3102C174.02 56.7702 170.16 57.5602 167.55 57.7302V58.6402H188.52V57.7302C185.92 57.5602 182.14 56.7602 182.05 51.4902Z" fill="white"/>
<path d="M37 0.490234L25.12 3.40023H25.03V4.28023C25.45 4.28023 28.98 5.53023 28.03 7.78023C23.52 17.7602 8.89003 51.0702 8.12003 52.5702C5.59003 57.5702 2.00003 57.5702 0.520027 57.7302V58.6402L19.12 58.6402L19.12 57.7102C19.12 57.7102 12.06 57.7902 12.06 54.1002C12.06 51.8602 15.71 43.0502 16.7 40.6402L40.93 34.7302C40.99 34.8802 47.51 50.6702 47.51 54.0002C47.51 57.6002 41.72 57.7102 41.51 57.7102V58.6202H65.78V57.7102C64.0572 57.7395 62.3637 57.2624 60.9096 56.338C59.4554 55.4136 58.3047 54.0826 57.6 52.5102C56.87 51.0702 37 0.490234 37 0.490234ZM40.09 32.6902L17.72 38.1502C17.84 37.8602 30.01 9.34023 30.35 8.62023C30.86 9.81023 40.08 32.6902 40.08 32.6902H40.09Z" fill="white"/>
</g>
<defs>
<clipPath id="ukwrfwowsz">
<rect width="59.03" height="188.01" fill="white" transform="translate(188.52 0.490234) rotate(90)"/>
</clipPath>
</defs>
</svg>
