<svg width="200" height="56" viewBox="0 0 200 56" fill="none" xmlns="http://www.w3.org/2000/svg">
<g clip-path="url(#wntwcjpecy)">
<path fill-rule="evenodd" clip-rule="evenodd" d="M2.20294 11.2908V7.14631C2.20294 4.20905 4.14379 2.32049 7.08137 2.32049C10.019 2.32049 11.9598 4.26134 11.9598 7.14631V12.2872H14.0582V7.04173C14.0582 3.00252 11.2781 0.327026 7.08137 0.327026C2.88497 0.327026 0.104575 3.00252 0.104575 7.04173V11.3957C0.104575 19.8937 12.0647 19.7888 12.0647 26.5551V31.3816C12.0647 34.3711 10.0716 36.3126 7.08137 36.3126C4.0915 36.3126 2.09804 34.3711 2.09804 31.3816V25.664H0V31.4862C0 35.578 2.83235 38.3058 7.08137 38.3058C11.3304 38.3058 14.1631 35.578 14.1631 31.4862V26.4506C14.1631 17.9528 2.20294 18.0574 2.20294 11.2908Z" fill="#5B00A6"/>
<path fill-rule="evenodd" clip-rule="evenodd" d="M18.4337 38.3055H29.8272V36.2437H20.6037V20.0757H29.0135V18.014H20.6037V2.38846H29.8272V0.327026H18.4337V38.3055Z" fill="#5B00A6"/>
<path fill-rule="evenodd" clip-rule="evenodd" d="M33.3956 38.3055H45.0603V35.4842H36.4339V20.4555H44.3012V17.6342H36.4339V3.14794H45.0603V0.327026H33.3956V38.3055Z" fill="#5B00A6"/>
<path fill-rule="evenodd" clip-rule="evenodd" d="M60.8552 30.9267C60.8552 33.694 59.0647 35.4842 56.2977 35.4842H51.7401V3.14791H56.2977C59.0647 3.14791 60.8552 4.93876 60.8552 7.70543V30.9267ZM56.4601 0.326996H48.7019V38.3054H56.4601C60.9637 38.3054 63.8931 35.4299 63.8931 31.0897V7.54268C63.8931 3.20249 60.9637 0.326996 56.4601 0.326996Z" fill="#5B00A6"/>
<mask id="hzyxkahoqm" mask-type="alpha" maskUnits="userSpaceOnUse" x="68" y="0" width="15" height="39">
<path d="M68.1718 0.326813H82.1695V38.3055H68.1718V0.326813Z" fill="white"/>
</mask>
<g mask="url(#hzyxkahoqm)">
<path fill-rule="evenodd" clip-rule="evenodd" d="M68.1718 4.01626H73.1629V38.3055H77.178V4.01626H82.1695V0.326721H68.1718V4.01626Z" fill="#5B00A6"/>
</g>
<path fill-rule="evenodd" clip-rule="evenodd" d="M97.7332 30.9618C97.7332 33.2173 96.212 34.7389 93.9561 34.7389C91.7006 34.7389 90.1796 33.2173 90.1796 30.9618V7.67093C90.1796 5.41537 91.7006 3.89413 93.9561 3.89413C96.212 3.89413 97.7332 5.41537 97.7332 7.67093V30.9618ZM93.9561 0.326813C89.3401 0.326813 86.2976 3.21243 86.2976 7.56635V31.0141C86.2976 35.4206 89.3401 38.3056 93.9561 38.3056C98.5725 38.3056 101.615 35.4206 101.615 31.0141V7.56635C101.615 3.21243 98.5725 0.326813 93.9561 0.326813Z" fill="#5B00A6"/>
<path fill-rule="evenodd" clip-rule="evenodd" d="M111.348 11.6577V7.77605C111.348 5.93977 112.555 4.73356 114.444 4.73356C116.279 4.73356 117.486 5.93977 117.486 7.77605V12.812H122.312V7.77605C122.312 3.3169 119.164 0.327026 114.444 0.327026C109.67 0.327026 106.523 3.3169 106.523 7.77605V12.1819C106.523 20.628 117.591 20.9424 117.591 26.2407V30.7519C117.591 32.6404 116.332 33.8992 114.444 33.8992C112.502 33.8992 111.244 32.6404 111.244 30.7519V25.1914H106.418V30.8045C106.418 35.3156 109.617 38.3055 114.444 38.3055C119.217 38.3055 122.417 35.3156 122.417 30.8045V25.7689C122.417 17.2705 111.348 16.9558 111.348 11.6577Z" fill="#5B00A6"/>
<path fill-rule="evenodd" clip-rule="evenodd" d="M134.75 0.326904C129.976 0.326904 126.776 3.31677 126.776 7.82854V30.8044C126.776 35.3155 129.976 38.3053 134.75 38.3053C139.523 38.3053 142.723 35.3155 142.723 30.8044V23.2508H137.897V30.7517C137.897 32.6403 136.638 33.8991 134.75 33.8991C132.861 33.8991 131.602 32.6403 131.602 30.7517V7.88115C131.602 5.99226 132.861 4.73344 134.75 4.73344C136.638 4.73344 137.897 5.99226 137.897 7.88115V14.8576H142.723V7.82854C142.723 3.31677 139.523 0.326904 134.75 0.326904Z" fill="#5B00A6"/>
<path fill-rule="evenodd" clip-rule="evenodd" d="M153.958 23.7652L155.422 9.3332V6.24072H156.454V9.3332L157.918 23.7652H153.958ZM151.462 0.326996L146.47 38.3054H152.493L153.469 28.7564H158.461L159.438 38.3054H165.731L160.794 0.326996H151.462Z" fill="#5B00A6"/>
<path fill-rule="evenodd" clip-rule="evenodd" d="M175.333 0.326904H169.365V38.3053H181.627V32.8798H175.333V0.326904Z" fill="#5B00A6"/>
<path fill-rule="evenodd" clip-rule="evenodd" d="M198.697 6.56621V0.326996H185.785V38.3054H198.697V32.0662H192.621V22.0829H198.1V16.0064H192.621V6.56621H198.697Z" fill="#5B00A6"/>
<path fill-rule="evenodd" clip-rule="evenodd" d="M193.322 46.2297C193.025 46.213 192.697 46.3019 192.406 46.5149C191.641 47.0767 191.334 47.8819 191.197 48.7754C191.152 49.0617 191.338 49.0431 191.52 48.9986C192.377 48.7882 193.233 48.5744 194.089 48.3581C194.245 48.3185 194.362 48.2192 194.445 48.077C194.916 47.2705 194.322 46.2346 193.322 46.2297ZM192.917 53.5689C192.17 53.4104 191.449 53.2038 190.825 52.7244C189.219 51.4891 188.858 49.197 190.019 47.4891C191.113 45.8803 193.381 45.3819 195.095 46.3721C195.661 46.6986 196.018 47.1862 196.245 47.7875C196.39 48.1728 196.324 48.3823 195.878 48.4849C194.512 48.7996 193.154 49.148 191.794 49.4855C191.192 49.6349 191.155 49.694 191.302 50.3029C191.886 52.7199 194.515 52.8326 195.868 51.9091C195.986 51.8287 196.091 51.5431 196.272 51.761C196.401 51.9163 196.211 52.0787 196.101 52.2025C195.482 52.8986 194.71 53.3244 193.785 53.4748C193.633 53.4993 193.484 53.5372 193.333 53.5689H192.917Z" fill="black"/>
<path fill-rule="evenodd" clip-rule="evenodd" d="M179.298 53.5689C178.219 53.3578 177.245 52.9613 176.56 52.0496C175.656 50.8447 175.473 49.5332 176.068 48.1568C176.64 46.8355 177.683 46.076 179.123 45.9045C180.365 45.7564 181.467 46.0656 182.279 47.0617C182.691 47.5662 182.628 47.6826 182.011 47.8313C181.911 47.8558 181.81 47.8793 181.708 47.9009C181.007 48.0509 181.003 48.0509 180.961 47.3394C180.89 46.1512 179.866 46.0479 179.054 46.3757C178.626 46.5486 178.321 46.8921 178.1 47.293C177.441 48.4917 177.411 49.7375 177.959 50.9656C178.641 52.4908 180.846 52.9293 182.301 51.8757C182.41 51.7966 182.517 51.5728 182.676 51.7417C182.807 51.8806 182.651 52.029 182.553 52.1437C181.924 52.8806 181.136 53.3395 180.167 53.4774C180.014 53.4986 179.865 53.5378 179.714 53.5689H179.298Z" fill="black"/>
<path fill-rule="evenodd" clip-rule="evenodd" d="M186.159 53.5689C185.696 53.4414 185.217 53.3839 184.774 53.1659C183.128 52.3571 182.252 50.6287 182.628 48.8885C183.01 47.1283 184.564 45.8362 186.397 45.8535C187.446 45.863 188.417 46.1878 189.097 47.0613C189.466 47.5342 189.407 47.6744 188.84 47.8205C188.79 47.8332 188.74 47.8519 188.689 47.8597C188.417 47.9022 188.124 48.1117 187.889 47.9917C187.633 47.8604 187.835 47.5257 187.797 47.2823C187.64 46.281 186.59 45.8692 185.675 46.48C184.901 46.997 184.573 47.7868 184.435 48.66C184.363 49.1176 184.377 49.5852 184.469 50.047C184.912 52.2712 187.242 53.1885 189.12 51.8797C189.227 51.8045 189.334 51.5734 189.493 51.744C189.625 51.8862 189.458 52.0332 189.365 52.146C188.756 52.8813 187.963 53.3029 187.027 53.4731C186.876 53.5006 186.726 53.5365 186.575 53.5689H186.159Z" fill="black"/>
<path fill-rule="evenodd" clip-rule="evenodd" d="M199.778 53.3624C198.637 53.3643 197.494 53.3689 196.352 53.3653C196.206 53.365 195.983 53.4281 195.943 53.2464C195.895 53.0297 196.14 53.064 196.271 53.0153C196.843 52.8013 197.038 52.5163 197.048 51.7643C197.062 50.6467 197.053 49.5287 197.053 48.4108C197.053 47.0516 197.042 45.6928 197.058 44.334C197.064 43.8232 197.019 43.3856 196.47 43.1356C196.195 43.0101 196.3 42.8215 196.54 42.7552C197.107 42.5987 197.679 42.463 198.25 42.3251C198.488 42.2673 198.617 42.3755 198.631 42.6127C198.641 42.7843 198.641 42.9565 198.641 43.1287C198.642 46.0353 198.639 48.9425 198.643 51.849C198.645 52.698 198.926 52.9859 199.778 53.0523V53.3624Z" fill="black"/>
<path fill-rule="evenodd" clip-rule="evenodd" d="M170.655 44.1942C170.603 44.1873 170.551 44.1805 170.499 44.1739C169.829 45.7847 169.156 47.3948 168.491 49.0082C168.371 49.3011 168.565 49.2795 168.758 49.2314C169.83 48.9651 170.901 48.6968 171.974 48.4334C172.18 48.3828 172.275 48.2873 172.188 48.0684C171.676 46.7775 171.166 45.4857 170.655 44.1942ZM174.839 53.3648C174.215 53.3651 173.592 53.3674 172.968 53.3631C172.852 53.3625 172.688 53.3772 172.666 53.2295C172.642 53.0677 172.81 53.0739 172.921 53.0399C173.68 52.8079 173.778 52.6468 173.563 51.8808C173.312 50.9847 172.979 50.1164 172.651 49.2458C172.531 48.9262 172.355 48.8814 172.056 48.9589C170.866 49.2664 169.675 49.5664 168.48 49.8543C168.191 49.9239 168.031 50.0909 167.938 50.3511C167.748 50.8864 167.538 51.4158 167.371 51.9579C167.162 52.6344 167.342 52.8935 168.052 53.0331C168.204 53.0631 168.479 52.9935 168.451 53.2311C168.428 53.4334 168.164 53.3635 168.002 53.3648C167.154 53.3716 166.305 53.3694 165.457 53.3635C165.328 53.3625 165.139 53.3903 165.122 53.2092C165.109 53.0586 165.283 53.0592 165.396 53.0318C165.933 52.9001 166.258 52.5265 166.464 52.0537C167.641 49.3533 168.804 46.6468 169.981 43.9465C170.136 43.5893 170.121 43.3354 169.746 43.1308C169.475 42.9824 169.571 42.8171 169.814 42.7504C170.381 42.5948 170.954 42.4589 171.526 42.3213C171.898 42.2314 171.954 42.5328 172.043 42.7648C172.651 44.3393 173.252 45.9167 173.858 47.4922C174.408 48.923 174.963 50.352 175.513 51.7828C175.754 52.4089 176.113 52.9082 176.829 53.0452C176.929 53.0645 177.065 53.0896 177.051 53.2138C177.034 53.3661 176.877 53.3609 176.761 53.3618C176.12 53.3661 175.48 53.3641 174.839 53.3648Z" fill="black"/>
<path fill-rule="evenodd" clip-rule="evenodd" d="M125.294 52.3294C125.188 52.4885 125.057 52.6392 124.901 52.7807C124.744 52.9222 124.566 53.0447 124.365 53.148C124.164 53.2513 123.948 53.3323 123.715 53.3915C123.482 53.4503 123.235 53.48 122.976 53.48C122.509 53.48 122.077 53.3973 121.679 53.2323C121.281 53.0669 120.936 52.8385 120.644 52.5464C120.352 52.2542 120.123 51.9078 119.958 51.5062C119.793 51.1052 119.71 50.6656 119.71 50.1875C119.71 49.7098 119.793 49.2705 119.958 48.8689C120.123 48.4679 120.352 48.1212 120.644 47.829C120.936 47.5372 121.281 47.3088 121.679 47.1434C122.077 46.9781 122.509 46.8954 122.976 46.8954C123.365 46.8954 123.755 46.9722 124.144 47.1254C124.533 47.279 124.866 47.5326 125.144 47.8866L124.586 48.3029C124.521 48.2022 124.433 48.1019 124.321 48.0019C124.209 47.9016 124.08 47.813 123.936 47.7362C123.791 47.6598 123.636 47.5977 123.471 47.5503C123.306 47.5032 123.141 47.4797 122.976 47.4797C122.574 47.4797 122.215 47.5536 121.896 47.7009C121.577 47.8483 121.307 48.046 121.086 48.2937C120.865 48.5415 120.695 48.8294 120.577 49.1568C120.459 49.4843 120.4 49.8281 120.4 50.1875C120.4 50.5477 120.459 50.8915 120.577 51.2189C120.695 51.5464 120.865 51.8336 121.086 52.0817C121.307 52.3294 121.577 52.5271 121.896 52.6748C122.215 52.8222 122.574 52.8957 122.976 52.8957C123.141 52.8957 123.305 52.881 123.467 52.8516C123.629 52.8222 123.789 52.7718 123.945 52.7013C124.101 52.6303 124.249 52.5346 124.387 52.4137C124.526 52.2928 124.654 52.1408 124.772 51.9575L125.294 52.3294Z" fill="black"/>
<path fill-rule="evenodd" clip-rule="evenodd" d="M129.144 53.3206C129.132 53.2085 129.125 53.0977 129.122 52.9886C129.119 52.8794 129.118 52.7693 129.118 52.6569H129.1C129.035 52.7693 128.952 52.8722 128.852 52.9667C128.752 53.0611 128.64 53.1422 128.516 53.2098C128.392 53.2778 128.26 53.3307 128.122 53.3693C127.983 53.4079 127.846 53.4268 127.71 53.4268C127.179 53.4268 126.787 53.2866 126.533 53.0065C126.28 52.7265 126.153 52.3265 126.153 51.8072V49.1788H126.737V51.4709C126.737 51.701 126.755 51.9046 126.79 52.0817C126.826 52.2585 126.886 52.4075 126.972 52.5284C127.057 52.6494 127.172 52.7412 127.317 52.803C127.461 52.8647 127.642 52.8958 127.861 52.8958C127.891 52.8958 127.973 52.884 128.109 52.8605C128.244 52.8369 128.388 52.7719 128.538 52.6657C128.688 52.5595 128.823 52.4003 128.941 52.1876C129.059 51.9755 129.118 51.6804 129.118 51.3026V49.1788H129.702V52.4092C129.702 52.5213 129.706 52.6628 129.715 52.834C129.724 53.0049 129.734 53.167 129.746 53.3206H129.144Z" fill="black"/>
<path fill-rule="evenodd" clip-rule="evenodd" d="M131.136 50.471C131.136 50.288 131.131 50.1021 131.122 49.9135C131.113 49.7246 131.106 49.4799 131.1 49.1789H131.675V49.9485H131.693C131.734 49.837 131.793 49.7289 131.87 49.6256C131.947 49.5227 132.039 49.4295 132.149 49.3472C132.258 49.2645 132.385 49.1978 132.529 49.1478C132.674 49.0978 132.837 49.0727 133.02 49.0727C133.185 49.0727 133.33 49.0903 133.454 49.1256L133.339 49.7011C133.262 49.6717 133.15 49.6567 133.003 49.6567C132.778 49.6567 132.587 49.6998 132.428 49.7848C132.268 49.8707 132.136 49.9799 132.029 50.1125C131.923 50.2452 131.845 50.3884 131.795 50.5416C131.745 50.6952 131.719 50.8426 131.719 50.9841V53.3207H131.136V50.471Z" fill="black"/>
<path fill-rule="evenodd" clip-rule="evenodd" d="M136.365 51.2586C136.218 51.2586 136.033 51.2658 135.813 51.2805C135.591 51.2952 135.379 51.3309 135.175 51.3871C134.972 51.443 134.798 51.5299 134.653 51.6479C134.508 51.7662 134.436 51.9282 134.436 52.1348C134.436 52.2707 134.464 52.3867 134.52 52.4841C134.576 52.5815 134.651 52.6613 134.746 52.723C134.84 52.7851 134.945 52.8296 135.06 52.856C135.175 52.8825 135.292 52.8959 135.41 52.8959C135.622 52.8959 135.807 52.8603 135.963 52.7897C136.119 52.7188 136.25 52.623 136.357 52.5021C136.463 52.3812 136.541 52.2394 136.591 52.0773C136.641 51.9152 136.666 51.7423 136.666 51.5596V51.2586H136.365ZM136.666 50.7805V50.6743C136.666 49.9606 136.312 49.6037 135.604 49.6037C135.12 49.6037 134.698 49.7662 134.339 50.0903L133.985 49.6743C134.374 49.2733 134.958 49.0727 135.737 49.0727C135.938 49.0727 136.131 49.1021 136.317 49.1609C136.503 49.2201 136.664 49.3103 136.799 49.4309C136.935 49.5518 137.044 49.7041 137.127 49.8867C137.209 50.0698 137.25 50.2881 137.25 50.5416V52.3913C137.25 52.5505 137.258 52.7175 137.273 52.8913C137.287 53.0655 137.304 53.2086 137.321 53.3207H136.755C136.737 53.2204 136.724 53.1113 136.715 52.9933C136.706 52.875 136.702 52.7603 136.702 52.6479H136.684C136.513 52.9256 136.311 53.1247 136.078 53.2452C135.845 53.3662 135.56 53.4269 135.224 53.4269C135.041 53.4269 134.864 53.4018 134.693 53.3515C134.522 53.3015 134.37 53.225 134.237 53.1214C134.104 53.0184 133.998 52.8913 133.918 52.741C133.839 52.5903 133.799 52.4149 133.799 52.2145C133.799 51.8782 133.886 51.6142 134.06 51.4224C134.234 51.2305 134.452 51.0877 134.715 50.9933C134.977 50.8985 135.258 50.8397 135.556 50.8162C135.854 50.7923 136.127 50.7805 136.374 50.7805H136.666Z" fill="black"/>
<path fill-rule="evenodd" clip-rule="evenodd" d="M140.746 49.7098H139.552V52.1527C139.552 52.3056 139.566 52.4311 139.596 52.5285C139.625 52.6259 139.667 52.701 139.719 52.754C139.773 52.8076 139.836 52.8442 139.91 52.8647C139.984 52.8857 140.065 52.8958 140.153 52.8958C140.253 52.8958 140.357 52.8811 140.463 52.8513C140.569 52.8219 140.667 52.7837 140.755 52.7366L140.782 53.2762C140.563 53.3765 140.301 53.4268 139.994 53.4268C139.882 53.4268 139.765 53.4118 139.644 53.3824C139.523 53.3527 139.413 53.2971 139.313 53.2144C139.212 53.1321 139.13 53.0197 139.065 52.8778C139 52.7366 138.968 52.5504 138.968 52.3203V49.7098H138.091V49.1788H138.968V48.0105H139.552V49.1788H140.746V49.7098Z" fill="black"/>
<path fill-rule="evenodd" clip-rule="evenodd" d="M144.764 50.9312C144.764 50.5358 144.646 50.2159 144.41 49.9711C144.174 49.726 143.844 49.6038 143.419 49.6038C143.23 49.6038 143.047 49.6407 142.87 49.7142C142.693 49.7881 142.538 49.8868 142.406 50.011C142.273 50.1345 142.167 50.2763 142.087 50.4355C142.007 50.5949 141.967 50.7603 141.967 50.9312H144.764ZM141.95 51.409C141.967 51.6155 142.018 51.8103 142.1 51.993C142.183 52.1763 142.292 52.3338 142.428 52.4665C142.563 52.5992 142.72 52.7041 142.897 52.7806C143.074 52.8577 143.265 52.8959 143.472 52.8959C143.785 52.8959 144.055 52.8237 144.282 52.6793C144.509 52.5345 144.681 52.3678 144.799 52.1789L145.251 52.5505C145.003 52.8636 144.73 53.0877 144.432 53.2234C144.134 53.359 143.814 53.427 143.472 53.427C143.165 53.427 142.88 53.3724 142.618 53.2632C142.355 53.1541 142.13 53.0021 141.941 52.8074C141.752 52.6129 141.603 52.3825 141.494 52.1172C141.385 51.8515 141.33 51.5626 141.33 51.2498C141.33 50.9371 141.383 50.6479 141.49 50.3822C141.596 50.1168 141.743 49.8868 141.932 49.692C142.121 49.4972 142.342 49.3453 142.596 49.2361C142.85 49.127 143.124 49.0727 143.419 49.0727C143.732 49.0727 144.012 49.1286 144.26 49.2407C144.508 49.3528 144.715 49.5018 144.884 49.6874C145.052 49.8737 145.18 50.092 145.269 50.3427C145.357 50.5936 145.401 50.8603 145.401 51.1433V51.409H141.95Z" fill="black"/>
<path fill-rule="evenodd" clip-rule="evenodd" d="M146.817 51.2497C146.817 51.4798 146.854 51.6951 146.928 51.8958C147.002 52.0965 147.106 52.2706 147.242 52.4177C147.378 52.5654 147.541 52.6821 147.733 52.7677C147.925 52.853 148.142 52.8958 148.384 52.8958C148.62 52.8958 148.84 52.853 149.043 52.7677C149.247 52.6821 149.422 52.5654 149.57 52.4177C149.717 52.2706 149.832 52.0965 149.915 51.8958C149.997 51.6951 150.039 51.4798 150.039 51.2497C150.039 51.0197 149.997 50.8043 149.915 50.6036C149.832 50.403 149.717 50.2291 149.57 50.0814C149.422 49.9344 149.247 49.8174 149.043 49.7317C148.84 49.6465 148.62 49.6036 148.384 49.6036C148.142 49.6036 147.925 49.6465 147.733 49.7317C147.541 49.8174 147.378 49.9344 147.242 50.0814C147.106 50.2291 147.002 50.403 146.928 50.6036C146.854 50.8043 146.817 51.0197 146.817 51.2497ZM150.596 53.3206H150.012V52.6304H149.994C149.9 52.7719 149.788 52.8929 149.658 52.9932C149.528 53.0938 149.392 53.1762 149.251 53.2409C149.109 53.3059 148.963 53.353 148.813 53.3824C148.662 53.4118 148.519 53.4268 148.384 53.4268C148.059 53.4268 147.763 53.3723 147.494 53.2631C147.226 53.154 146.994 53.002 146.8 52.8076C146.605 52.6128 146.453 52.3827 146.344 52.117C146.235 51.8517 146.18 51.5625 146.18 51.2497C146.18 50.937 146.235 50.6478 146.344 50.3824C146.453 50.1167 146.605 49.8867 146.8 49.6919C146.994 49.4974 147.226 49.3455 147.494 49.2363C147.763 49.1272 148.059 49.0726 148.384 49.0726C148.519 49.0726 148.662 49.0873 148.813 49.117C148.963 49.1461 149.109 49.1935 149.251 49.2582C149.392 49.3233 149.528 49.4059 149.658 49.5063C149.788 49.6069 149.9 49.7275 149.994 49.869H150.012V46.6298H150.596V53.3206Z" fill="black"/>
<path fill-rule="evenodd" clip-rule="evenodd" d="M158.11 51.2497C158.11 51.0197 158.073 50.8043 157.999 50.6036C157.926 50.403 157.821 50.2291 157.685 50.0814C157.549 49.9344 157.386 49.8174 157.194 49.7317C157.002 49.6465 156.785 49.6036 156.544 49.6036C156.302 49.6036 156.08 49.6465 155.88 49.7317C155.679 49.8174 155.505 49.9344 155.358 50.0814C155.21 50.2291 155.095 50.403 155.012 50.6036C154.93 50.8043 154.888 51.0197 154.888 51.2497C154.888 51.4798 154.93 51.6951 155.012 51.8958C155.095 52.0965 155.21 52.2706 155.358 52.4177C155.505 52.5654 155.679 52.6821 155.88 52.7677C156.08 52.853 156.302 52.8958 156.544 52.8958C156.785 52.8958 157.002 52.853 157.194 52.7677C157.386 52.6821 157.549 52.5654 157.685 52.4177C157.821 52.2706 157.926 52.0965 157.999 51.8958C158.073 51.6951 158.11 51.4798 158.11 51.2497ZM154.331 46.6298H154.915V49.869H154.933C155.027 49.7275 155.139 49.6069 155.269 49.5063C155.399 49.4059 155.535 49.3233 155.676 49.2582C155.818 49.1935 155.964 49.1461 156.114 49.117C156.265 49.0873 156.408 49.0726 156.544 49.0726C156.868 49.0726 157.164 49.1272 157.433 49.2363C157.702 49.3455 157.933 49.4974 158.128 49.6919C158.322 49.8867 158.474 50.1167 158.584 50.3824C158.693 50.6478 158.747 50.937 158.747 51.2497C158.747 51.5625 158.693 51.8517 158.584 52.117C158.474 52.3827 158.322 52.6128 158.128 52.8076C157.933 53.002 157.702 53.154 157.433 53.2631C157.164 53.3723 156.868 53.4268 156.544 53.4268C156.408 53.4268 156.265 53.4118 156.114 53.3824C155.964 53.353 155.818 53.3059 155.676 53.2409C155.535 53.1762 155.399 53.0938 155.269 52.9932C155.139 52.8929 155.027 52.7719 154.933 52.6304H154.915V53.3206H154.331V46.6298Z" fill="black"/>
<path fill-rule="evenodd" clip-rule="evenodd" d="M161.278 52.6038L162.544 49.179H163.252L161.181 54.4002C161.057 54.7192 160.899 54.9724 160.707 55.1613C160.516 55.3502 160.24 55.4443 159.88 55.4443C159.791 55.4443 159.701 55.4417 159.61 55.4358C159.518 55.4296 159.429 55.4123 159.34 55.3826L159.402 54.8165C159.526 54.8812 159.673 54.9136 159.845 54.9136C160.051 54.9136 160.213 54.8486 160.331 54.7192C160.449 54.5891 160.552 54.4061 160.641 54.1701L160.942 53.3734L159.243 49.179H159.977L161.278 52.6038Z" fill="black"/>
</g>
<defs>
<clipPath id="wntwcjpecy">
<rect width="200" height="55.5556" fill="white"/>
</clipPath>
</defs>
</svg>
